<?xml version="1.0" encoding="utf-8"?>
<!-- Generator: Adobe Illustrator 18.1.1, SVG Export Plug-In . SVG Version: 6.00 Build 0)  -->
<svg version="1.1" id="Layer_1" xmlns="http://www.w3.org/2000/svg" xmlns:xlink="http://www.w3.org/1999/xlink" x="0px" y="0px"
	 viewBox="0 0 360 91" enable-background="new 0 0 360 91" xml:space="preserve">
<g id="Layer_2">
	<g>
		<path fill="#fff" d="M73.3,49.3L65,71.7L64.3,67c-2.2-5.4-6.5-11.2-11.5-13.7l7.6,28.4h9l13.3-32.4L73.3,49.3L73.3,49.3z"/>
		<polygon fill="#fff" points="80.5,81.7 85.9,49.3 94.1,49.3 88.7,81.7 		"/>
		<path fill="#fff" d="M119.3,50.1c-1.8-0.7-4.3-1.4-7.6-1.4c-8.3,0-14,4.3-14,10.8c0,4.7,4.3,7.2,7.2,9c3.2,1.4,4.3,2.5,4.3,4
			c0,2.2-2.5,3.2-5,3.2c-3.2,0-5-0.4-7.9-1.8l-1.1-0.4l-1.1,7.2c1.8,1.1,5.8,1.8,9.4,1.8c8.6,0,14.4-4.3,14.8-11.2
			c0-3.6-2.2-6.5-7.2-9c-2.9-1.4-4.7-2.5-4.7-4s1.4-2.9,4.7-2.9c2.9,0,4.7,0.7,6.1,1.1l0.7,0.4L119.3,50.1L119.3,50.1z"/>
		<path fill="#fff" d="M140.9,49.3h-6.5c-2.2,0-3.6,0.7-4.3,2.5l-12.6,29.9h8.6c0,0,1.4-4,1.8-5c1.1,0,9.4,0,10.8,0
			c0.4,1.1,1.1,5,1.1,5h7.9L140.9,49.3L140.9,49.3z M130.5,70.2c0.7-1.8,3.2-9,3.2-9s0.7-1.8,1.1-3.2l0.7,2.9c0,0,1.4,7.9,1.8,9.4
			C136.3,70.2,132.3,70.2,130.5,70.2L130.5,70.2z"/>
		<path fill="#fff" d="M57.8,49.3H44.1v0.7c10.4,2.5,17.6,9.4,20.5,17.3l-2.9-14.8C61,50.1,59.6,49.3,57.8,49.3L57.8,49.3z"/>
		<polygon fill="#fff" points="18.5,41.4 13.5,41.4 7,13.7 13.1,12.6 17.5,34.2 27.9,13 33.7,13 		"/>
		<path fill="#fff" d="M46.6,32.4H34c-0.4,4,1.4,5.4,4.3,5.4c2.5,0,4.7-1.1,7.2-2.5v4c-2.5,1.4-5,2.5-8.3,2.5
			c-5.4,0-9.4-3.2-8.3-10.4c1.1-6.5,5.4-10.4,10.8-10.4c6.1,0,7.9,4.3,7.2,10.1C46.6,31.3,46.6,32.1,46.6,32.4L46.6,32.4z
			 M39.1,24.5c-1.8,0-4,1.4-4.7,4.7h7.9C42.3,25.9,41.2,24.5,39.1,24.5L39.1,24.5z"/>
		<path fill="#fff" d="M54.9,29.9l-1.8,11.5h-5l3.2-19.8h4.3v4c1.8-2.2,4-4.3,7.2-4.3v5C59.2,25.9,56.7,27.7,54.9,29.9L54.9,29.9
			z"/>
		<path fill="#fff" d="M62.5,41.4l3.2-19.8h5l-3.2,19.8H62.5L62.5,41.4z M68.6,18c-1.8,0-2.9-1.1-2.5-2.9
			c0.4-1.8,1.8-2.9,3.2-2.9c1.4,0,2.9,1.1,2.5,2.9C71.5,16.9,70,18,68.6,18L68.6,18z"/>
		<path fill="#fff" d="M84.1,15.9c-1.8,0-2.9,0.7-2.9,2.5l-0.4,2.9h4v4h-4.3l-2.5,15.8h-5l2.5-15.8h-2.9l0.7-4h2.9l0.4-3.2
			c0.7-4.3,3.6-6.1,7.9-6.1c0.7,0,1.4,0,2.2,0v4C85.5,15.9,84.8,15.9,84.1,15.9L84.1,15.9z"/>
		<path fill="#fff" d="M84.1,41.4l3.2-19.8h5l-3.2,19.8H84.1L84.1,41.4z M90.2,18c-1.8,0-2.9-1.1-2.5-2.9
			c0.4-1.8,1.8-2.9,3.2-2.9s2.9,1.1,2.5,2.9C93.4,16.9,92,18,90.2,18L90.2,18z"/>
		<path fill="#fff" d="M111.4,32.4H98.8c-0.4,4,1.4,5.4,4.3,5.4c2.5,0,4.7-1.1,7.2-2.5v4c-2.5,1.4-5,2.5-8.3,2.5
			c-5.4,0-9.4-3.2-8.3-10.4c1.1-6.5,5.4-10.4,10.8-10.4c6.1,0,7.9,4.3,7.2,10.1C111.4,31.3,111.4,32.1,111.4,32.4L111.4,32.4z
			 M103.9,24.5c-1.8,0-4,1.4-4.7,4.7h7.9C107.1,25.9,106,24.5,103.9,24.5L103.9,24.5z"/>
		<path fill="#fff" d="M125.8,41.4v-2.9c-1.8,1.8-4,3.2-6.5,3.2c-4.3,0-6.8-3.2-6.1-9.7c1.1-7.6,5.8-10.8,10.4-10.8
			c1.8,0,3.2,0.4,4.3,0.7l1.4-9.7l5-0.7l-4.7,29.9L125.8,41.4L125.8,41.4z M127.6,25.9c-1.1-0.7-2.2-0.7-3.6-0.7
			c-2.5,0-4.7,2.2-5.4,6.5c-0.7,4,0.7,5.8,2.9,5.8c1.8,0,3.2-1.1,5-2.9L127.6,25.9L127.6,25.9z"/>
		<path fill="#fff" d="M145.3,41.4c-2.2,0-4.3-0.4-6.1-1.1l3.2-21.2l4-0.7l-1.4,9c1.1-1.1,2.5-2.2,4.7-2.2c3.2,0,5.4,2.5,4.7,7.6
			C153.2,38.9,149.9,41.4,145.3,41.4L145.3,41.4z M148.1,29.2c-1.1,0-2.5,0.7-3.6,1.8l-1.1,6.8c0.7,0.4,1.1,0.4,2.2,0.4
			c2.5,0,4-1.4,4.7-5C150.7,30.6,149.9,29.2,148.1,29.2L148.1,29.2z"/>
		<path fill="#fff" d="M162.9,42.1c-1.8,3.6-4,5-6.8,5c-0.7,0-1.1,0-1.4,0v-3.2c0.4,0,1.1,0.4,1.8,0.4c1.1,0,2.2-0.4,2.5-1.4
			l0.4-1.1L156.1,27l4-0.4l1.8,10.8l5-10.4h3.6L162.9,42.1L162.9,42.1z"/>
	</g>
</g>
<g id="Layer_4">
	<g>
		<path fill="#fff" d="M343.6,41.1c0-1.8,1.4-3.2,3.2-3.2c1.8,0,3.2,1.4,3.2,3.2c0,1.8-1.4,3.2-3.2,3.2
			C345.1,44.3,343.6,42.9,343.6,41.1L343.6,41.1L343.6,41.1z M346.9,43.6c1.4,0,2.5-1.1,2.5-2.5c0-1.4-1.1-2.5-2.5-2.5
			s-2.5,1.1-2.5,2.5C344.3,42.5,345.4,43.6,346.9,43.6L346.9,43.6L346.9,43.6z M346.5,42.5h-0.7v-2.9h1.1c0.4,0,0.4,0,0.7,0
			c0.4,0,0.4,0.4,0.4,0.7s-0.4,0.7-0.4,0.7l0.4,1.4h-0.7l-0.4-1.1h-0.4V42.5L346.5,42.5L346.5,42.5z M346.5,40.7h0.4h0.4v-0.4V40
			h-0.4h-0.4V40.7L346.5,40.7L346.5,40.7z"/>
		<path fill="#fff" d="M297.5,18.4l-0.7,5.8c-1.8-1.1-3.2-1.4-4.7-1.4c-4,0-6.8,4-6.8,9.7c0,4,1.8,6.5,5,6.5
			c1.4,0,2.9-0.4,4.7-1.4l-1.1,6.1c-2.2,0.7-3.2,0.7-4.7,0.7c-5.8,0-9.4-4.3-9.4-11.5c0-9.4,5-16.2,12.2-16.2c1.1,0,1.8,0,2.5,0.4
			l2.2,0.7C296.8,18.4,297.2,18.4,297.5,18.4L297.5,18.4L297.5,18.4z"/>
		<path fill="#fff" d="M279.5,22.3h-0.4c-1.8,0-2.9,1.1-4.3,3.6l0.4-3.2h-5l-3.2,21.6h5.4c1.8-13.3,2.5-15.5,5-15.5h0.4
			C278.5,26.3,278.8,24.1,279.5,22.3L279.5,22.3L279.5,22.3L279.5,22.3z"/>
		<path fill="#fff" d="M247.5,43.9c-1.4,0.4-2.5,0.7-4,0.7c-2.9,0-4.3-1.8-4.3-4.7c0-0.7,0-1.4,0-1.8l0.4-2.2l0.4-1.8l2.5-14.8
			h5.4l-0.7,3.2h2.9l-0.7,5h-2.9l-1.4,9c0,0.4,0,0.7,0,0.7c0,1.1,0.7,1.4,1.8,1.4c0.7,0,1.1,0,1.4-0.4L247.5,43.9L247.5,43.9
			L247.5,43.9z"/>
		<path fill="#fff" d="M226.3,29.5c0,2.9,1.4,4.7,4,6.1c2.2,1.1,2.5,1.4,2.5,2.5c0,1.4-1.1,1.8-3.2,1.8c-1.4,0-3.2-0.4-4.7-0.7
			l-0.7,5h0.4l1.1,0.4c0.4,0,0.7,0,1.4,0.4c1.4,0,2.2,0.4,2.9,0.4c5.8,0,8.3-2.2,8.3-7.2c0-2.9-1.1-4.7-4-6.1
			c-2.2-1.1-2.5-1.4-2.5-2.5c0-1.1,0.7-1.8,2.5-1.8c1.1,0,2.5,0,4,0.4l0.7-5c-1.4-0.4-3.6-0.4-4.7-0.4
			C228.1,22.3,226.3,25.6,226.3,29.5L226.3,29.5L226.3,29.5z"/>
		<path fill="#fff" d="M340.4,43.9h-5l0.4-2.2c-1.4,1.8-2.9,2.5-5,2.5c-4,0-6.5-3.6-6.5-9c0-7.2,4-13.3,8.6-13.3
			c2.2,0,3.6,1.1,5,2.9l1.1-7.6h5.4L340.4,43.9L340.4,43.9L340.4,43.9z M332.5,39.3c2.5,0,4.3-2.9,4.3-7.2c0-2.9-1.1-4.3-2.9-4.3
			c-2.5,0-4.3,2.9-4.3,7.2C329.9,37.5,330.7,39.3,332.5,39.3L332.5,39.3L332.5,39.3z"/>
		<path fill="#fff" d="M264.4,43.6c-1.8,0.7-3.6,0.7-5.4,0.7c-6.1,0-9-3.2-9-9.7c0-7.6,4-13,9.4-13c4.3,0,7.2,3.2,7.2,7.9
			c0,1.4-0.4,3.2-0.7,5.4h-10.8c0,0.4,0,0.4,0,0.7c0,2.5,1.4,4,4.7,4c1.8,0,3.6-0.4,5.8-1.4L264.4,43.6L264.4,43.6L264.4,43.6z
			 M261.5,31c0-0.4,0-0.7,0-1.1c0-1.8-1.1-2.9-2.5-2.9c-1.8,0-2.9,1.4-3.2,4L261.5,31L261.5,31L261.5,31z"/>
		<polygon fill="#fff" points="204.7,43.9 199.3,43.9 202.1,23.8 195.3,43.9 191.7,43.9 191.3,23.8 188.1,43.9 183.1,43.9 
			187,17.7 194.9,17.7 194.9,34.2 200.3,17.7 208.6,17.7 		"/>
		<path fill="#fff" d="M218.3,34.6c-0.7,0-0.7,0-1.1,0c-3.2,0-4.7,1.1-4.7,3.2c0,1.4,0.7,2.2,1.8,2.2
			C216.5,40,218.3,37.8,218.3,34.6L218.3,34.6L218.3,34.6z M222.3,43.9H218v-2.2c-1.4,1.8-3.2,2.5-5.8,2.5c-2.9,0-5-2.5-5-5.8
			c0-5.4,3.6-8.3,9.4-8.3c0.7,0,1.4,0,2.2,0c0-0.7,0.4-1.1,0.4-1.4c0-1.4-1.1-1.8-3.6-1.8c-1.4,0-3.2,0.4-4.3,0.7l-0.7,0.4h-0.4
			l0.7-4.7c2.5-0.7,4.3-1.1,6.5-1.1c4.7,0,7.2,2.2,7.2,6.1c0,1.1,0,1.8-0.4,4.3l-1.1,7.6l-0.4,1.4v1.1v0.7L222.3,43.9L222.3,43.9
			L222.3,43.9z"/>
		<path fill="#fff" d="M306.9,34.6c-0.4,0-0.7,0-1.1,0c-3.2,0-4.7,1.1-4.7,3.2c0,1.4,0.7,2.2,1.8,2.2
			C305.1,40,306.9,37.8,306.9,34.6L306.9,34.6L306.9,34.6z M310.9,43.9h-4.7v-2.2c-1.4,1.8-3.2,2.5-5.8,2.5c-2.9,0-5-2.5-5-5.8
			c0-5.4,3.6-8.3,9.4-8.3c0.7,0,1.4,0,2.2,0c0-0.7,0.4-1.1,0.4-1.4c0-1.4-1.1-1.8-3.6-1.8c-1.4,0-3.2,0.4-4.3,0.7l-0.7,0.4h-0.4
			l0.7-4.7c2.5-0.7,4.3-1.1,6.5-1.1c4.7,0,7.2,2.2,7.2,6.1c0,1.1,0,1.8-0.4,4.3l-1.1,7.6v1.4v1.1v0.7L310.9,43.9L310.9,43.9
			L310.9,43.9z"/>
		<path fill="#fff" d="M326,22.3h-0.4c-1.8,0-2.9,1.1-4.3,3.6l0.4-3.2h-5l-3.2,21.6h5.4c1.8-13.3,2.5-15.5,5-15.5c0,0,0,0,0.4,0
			C324.5,26.3,325.3,24.1,326,22.3L326,22.3L326,22.3L326,22.3z"/>
		<path fill="#fff" d="M303.3,65.2c0,5-1.4,7.9-4,7.9c-1.8,0-2.9-1.8-2.9-4.7c0-3.2,1.4-7.2,4-7.2
			C302.6,60.5,303.3,62.7,303.3,65.2L303.3,65.2L303.3,65.2z M308.3,65.2c0-5.4-2.5-9.7-7.6-9.7c-5.8,0-9.7,5-9.7,12.6
			c0,5.4,2.2,9.7,7.6,9.7C304.4,77.8,308.3,74.2,308.3,65.2L308.3,65.2L308.3,65.2z"/>
		<path fill="#fff" d="M292.9,51.5l-0.7,5.8c-1.8-1.1-3.2-1.4-4.3-1.4c-3.6,0-6.5,4-6.5,9.7c0,4,1.8,6.5,4.7,6.5
			c1.4,0,2.5-0.4,4.3-1.4l-0.7,6.1c-1.8,0.7-3.2,0.7-4.3,0.7c-5.4,0-9-4.3-9-11.5c0-9.4,4.7-16.2,11.5-16.2c0.7,0,1.4,0,2.2,0.4
			l2.2,0.7C292.5,51.5,292.5,51.5,292.9,51.5L292.9,51.5L292.9,51.5z"/>
		<path fill="#fff" d="M259.7,55.5h-0.4c-1.8,0-2.5,1.1-4.3,3.6l0.4-3.2h-4.7l-3.2,21.6h5c1.8-13.3,2.2-15.5,4.7-15.5
			c0,0,0,0,0.4,0C258.3,59.4,259,57.3,259.7,55.5L259.7,55.5L259.7,55.5L259.7,55.5z"/>
		<path fill="#fff" d="M325.3,77.1h-4.7l0.4-2.2c-1.4,1.8-2.9,2.5-4.7,2.5c-3.6,0-6.1-3.6-6.1-9c0-7.2,3.6-13.3,8.3-13.3
			c1.8,0,3.6,1.1,4.7,2.9l1.1-7.6h5L325.3,77.1L325.3,77.1L325.3,77.1z M318.1,72c2.5,0,4-2.9,4-7.2c0-2.9-1.1-4.3-2.5-4.3
			c-2.2,0-4,2.9-4,7.2C315.2,70.6,316.3,72,318.1,72L318.1,72L318.1,72z"/>
		<path fill="#fff" d="M212.6,77.1c-1.8,0.7-3.2,0.7-5,0.7c-5.8,0-8.6-3.2-8.6-9.7c0-7.2,3.6-13,8.6-13c4.3,0,6.8,2.9,6.8,7.9
			c0,1.4-0.4,3.2-0.7,5.4h-10.1c0,0.4,0,0.4,0,0.7c0,2.5,1.4,3.6,4.3,3.6c1.8,0,3.2-0.4,5-1.4L212.6,77.1L212.6,77.1L212.6,77.1z
			 M209.7,64.1c0-0.4,0-0.7,0-1.1c0-1.8-0.7-2.9-2.5-2.9c-1.4,0-2.9,1.4-3.2,4L209.7,64.1L209.7,64.1L209.7,64.1z"/>
		<path fill="#fff" d="M272.3,77.1c-1.8,0.7-3.2,0.7-5,0.7c-5.8,0-8.6-3.2-8.6-9.7c0-7.2,3.6-13,8.6-13c4.3,0,6.8,2.9,6.8,7.9
			c0,1.4-0.4,3.2-0.7,5.4h-10.1c0,0.4,0,0.4,0,0.7c0,2.5,1.4,3.6,4.3,3.6c1.8,0,3.2-0.4,5-1.4L272.3,77.1L272.3,77.1L272.3,77.1z
			 M269.5,64.1c0-0.4,0-0.7,0-1.1c0-1.8-0.7-2.9-2.5-2.9c-1.4,0-2.9,1.4-3.2,4L269.5,64.1L269.5,64.1L269.5,64.1z"/>
		<path fill="#fff" d="M342.5,77.1c-1.8,0.7-3.2,0.7-5,0.7c-5.8,0-8.6-3.2-8.6-9.7c0-7.2,3.6-13,9-13c4.3,0,6.8,2.9,6.8,7.9
			c0,1.4-0.4,3.2-0.7,5.4h-10.1c0,0.4,0,0.4,0,0.7c0,2.5,1.4,3.6,4.3,3.6c1.8,0,3.2-0.4,5-1.4L342.5,77.1L342.5,77.1L342.5,77.1z
			 M339.7,64.1c0-0.4,0-0.7,0-1.1c0-1.8-0.7-2.9-2.5-2.9c-1.4,0-2.9,1.4-3.2,4L339.7,64.1L339.7,64.1L339.7,64.1z"/>
		<path fill="#fff" d="M197.5,56.5c-1.1-0.7-2.5-1.1-4.3-1.1c-2.2,0-3.6,0.4-3.6,2.5c0,4,7.6,2.5,7.6,10.4c0,7.6-5,9.4-9.4,9.4
			c-1.8,0-4.3-0.7-5.8-1.4l1.1-5.4c1.1,1.1,2.9,1.4,4.7,1.4c1.4,0,4-0.4,4-3.2c0-4.3-7.6-2.9-7.6-10.4c0-6.8,4.3-9,8.6-9
			c2.5,0,4.7,0.4,5.8,1.1L197.5,56.5L197.5,56.5L197.5,56.5z"/>
		<path fill="#fff" d="M227.3,77.1c-1.1,0.4-2.5,0.7-4.3,0.7c-4.3,0-7.2-4.3-7.2-9.7c0-7.2,4-12.6,9.7-12.6
			c1.4,0,3.2,0.4,4.7,1.4l-1.1,5c-1.1-0.7-2.2-1.1-3.2-1.1c-2.5,0-4.7,2.5-4.7,6.8c0,2.5,1.4,4.7,3.6,4.7c1.4,0,2.2-0.4,3.2-1.1
			L227.3,77.1L227.3,77.1L227.3,77.1z"/>
		<path fill="#fff" d="M246.1,71.7c-0.4,1.8-0.4,3.6-0.7,5.4h-4.7l0.4-3.6l0,0c-1.4,2.5-3.2,4-5.8,4c-2.9,0-4.7-3.2-4.7-7.2
			c0-1.4,0-2.2,0.4-4.3l1.4-10.1h5.4l-1.4,10.1c0,1.1-0.4,2.2-0.4,3.2c0,1.4,0.7,2.5,2.2,2.5c2.2,0,3.6-2.5,4-5.8l1.4-9.7h5
			L246.1,71.7L246.1,71.7L246.1,71.7z"/>
		<polygon fill="#fff" points="347.6,76.7 346.9,76.7 346.9,73.5 345.4,73.5 345.4,72.4 348.7,72.4 348.7,73.5 347.6,73.5 		"/>
		<polygon fill="#fff" points="353,76.7 352.3,76.7 352.3,73.1 352.3,73.1 351.5,76.7 350.8,76.7 350.1,73.1 350.1,73.1 
			350.1,76.7 349,76.7 349,72.4 350.5,72.4 351.2,76 351.2,76 351.9,72.4 353,72.4 		"/>
	</g>
</g>
</svg>
